<?xml version="1.0" encoding="UTF-8" standalone="no"?>
<svg
   xmlns:dc="http://purl.org/dc/elements/1.1/"
   xmlns:cc="http://creativecommons.org/ns#"
   xmlns:rdf="http://www.w3.org/1999/02/22-rdf-syntax-ns#"
   xmlns:svg="http://www.w3.org/2000/svg"
   xmlns="http://www.w3.org/2000/svg"
   xmlns:sodipodi="http://sodipodi.sourceforge.net/DTD/sodipodi-0.dtd"
   xmlns:inkscape="http://www.inkscape.org/namespaces/inkscape"
   version="1.1"
   width="128"
   height="128"
   viewBox="0 0 128 128"
   overflow="visible"
   enable-background="new 0 0 128 128"
   xml:space="preserve"
   id="svg2"
   sodipodi:version="0.32"
   inkscape:version="0.46"
   sodipodi:docname="Human-fullrun.svg"
   inkscape:output_extension="org.inkscape.output.svg.inkscape"
   inkscape:export-filename="/home/speedy/EPFL/Semester Project/devel/TuringSim/src/gui/resources/Human-fullrun.png"
   inkscape:export-xdpi="14.595231"
   inkscape:export-ydpi="14.595231"><metadata
   id="metadata39"><rdf:RDF><cc:Work
       rdf:about=""><dc:format>image/svg+xml</dc:format><dc:type
         rdf:resource="http://purl.org/dc/dcmitype/StillImage" /></cc:Work></rdf:RDF></metadata><defs
   id="defs37"><inkscape:perspective
     sodipodi:type="inkscape:persp3d"
     inkscape:vp_x="0 : 64 : 1"
     inkscape:vp_y="0 : 1000 : 0"
     inkscape:vp_z="128 : 64 : 1"
     inkscape:persp3d-origin="64 : 42.666667 : 1"
     id="perspective41" /></defs><sodipodi:namedview
   inkscape:window-height="1140"
   inkscape:window-width="1920"
   inkscape:pageshadow="2"
   inkscape:pageopacity="0.0"
   guidetolerance="10.0"
   gridtolerance="10.0"
   objecttolerance="10.0"
   borderopacity="1.0"
   bordercolor="#666666"
   pagecolor="#ffffff"
   id="base"
   showgrid="false"
   inkscape:zoom="5.977262"
   inkscape:cx="-17.946215"
   inkscape:cy="39.131548"
   inkscape:window-x="-4"
   inkscape:window-y="-3"
   inkscape:current-layer="svg2" />
	<path
   d="M 80.264,34.412614 L 122.492,63.963422 C 122.68,64.094986 122.785,64.272737 122.785,64.458186 C 122.785,64.643635 122.68,64.822087 122.492,64.952951 L 80.264,94.503759 C 79.978,94.704604 79.548,94.764087 79.174,94.655617 C 78.8,94.547847 78.557,94.291717 78.557,94.008994 C 78.557,94.008994 78.557,78.270304 78.557,76.979158 C 76.707,76.979158 53.465,76.979158 53.465,76.979158 C 44.319,76.979158 35.973521,83.225236 21.297546,95.54013 C 11.326357,103.90715 2.3845813,99.253777 -5.0325702,95.504669 C -20.373954,87.750141 -29.998847,62.692593 -30.189847,63.041098 C -30.378847,63.389603 -11.527555,83.480903 -10.458196,84.560941 C -7.6702252,87.376753 1.8860767,108.08953 6.768,82.40524 C 11.452419,57.76004 41.043,51.939314 49.528,51.939314 C 49.528,51.939314 76.687,51.939314 78.556,51.939314 C 78.556,50.648168 78.556,34.908778 78.556,34.908778 C 78.556,34.626055 78.799,34.370625 79.173,34.262155 C 79.547,34.153685 79.977,34.212468 80.264,34.412614 z"
   id="path4"
   style="opacity:0.2"
   sodipodi:nodetypes="ccsccscccssssscccsc" />
	<path
   d="M 80.97,33.916449 C 80.971,33.916449 123.199,63.468657 123.199,63.468657 C 123.577,63.733185 123.785,64.084489 123.785,64.458186 C 123.785,64.831884 123.577,65.183188 123.199,65.447715 L 80.971,94.998523 C 80.398,95.400213 79.541,95.519181 78.792,95.30224 C 78.041,95.0853 77.557,94.577938 77.557,94.008994 C 77.557,94.008994 77.557,78.965914 77.557,77.678966 C 75.713,77.678966 53.465,76.842463 53.465,76.842463 C 44.612,76.842463 35.893729,81.621174 21.879294,94.369025 C 13.891194,101.63518 4.1079666,100.4528 -0.6489831,97.842088 C -24.884813,84.54096 -29.98334,62.065559 -30.36434,62.763967 C -30.744879,63.461532 -20.756044,77.854724 -20.823648,74.144637 C -20.827084,73.947683 -0.92869945,109.06902 5.769,83.241743 C 11.875475,59.777959 40.846,51.239506 49.529,51.239506 C 49.529,51.239506 75.693,51.239506 77.557,51.239506 C 77.557,49.952558 77.557,34.908778 77.557,34.908778 C 77.557,34.340533 78.041,33.832472 78.791,33.615532 C 79.54,33.397891 80.395,33.516159 80.97,33.916449 z"
   id="path6"
   style="opacity:0.2"
   sodipodi:nodetypes="ccsccscccssssscccsc" />
	<linearGradient
   id="XMLID_5_"
   gradientUnits="userSpaceOnUse"
   x1="66.4351"
   y1="99.3262"
   x2="63.268"
   y2="25.6596"
   gradientTransform="matrix(-1,0,0,0.6998084,129.554,30.196268)">
		<stop
   offset="0"
   style="stop-color:#D15F00"
   id="stop9" />
		<stop
   offset="1"
   style="stop-color:#D96E00"
   id="stop11" />
	</linearGradient>
	<path
   d="M 80.264,33.712805 L 122.492,63.263613 C 122.68,63.395177 122.785,63.572929 122.785,63.758378 C 122.785,63.943827 122.68,64.122278 122.492,64.253142 L 80.264,93.80395 C 79.978,94.004795 79.548,94.064279 79.174,93.955809 C 78.8,93.848038 78.557,93.591908 78.557,93.309186 C 78.557,93.309186 78.557,77.570496 78.557,76.279349 C 76.707,76.279349 53.465,76.279349 53.465,76.279349 C 44.319,76.279349 34.99867,81.705407 21.548497,93.836517 C 10.569408,103.73888 2.4615616,98.966208 -1.9424325,97.621341 C -4.594896,96.811346 -23.871776,79.559814 -30.036898,63.45758 C -30.170587,63.108408 -28.866724,65.151494 -25.009028,68.971584 C -18.027856,75.884701 0.43720421,102.76069 6.768,82.541934 C 14.410961,58.073345 46.187497,51.490457 49.528,51.490457 C 49.528,51.490457 76.687,51.239506 78.556,51.239506 C 78.556,49.948359 78.556,34.208969 78.556,34.208969 C 78.556,33.926247 78.799,33.670817 79.173,33.562346 C 79.547,33.453876 79.977,33.51266 80.264,33.712805 z"
   id="path13"
   style="fill:url(#XMLID_5_)"
   sodipodi:nodetypes="ccsccscccssssscccsc" />
	<linearGradient
   id="XMLID_6_"
   gradientUnits="userSpaceOnUse"
   x1="59.4351"
   y1="35.6001"
   x2="81.768"
   y2="130.6001"
   gradientTransform="matrix(-1,0,0,0.6998084,129.554,30.196268)">
		<stop
   offset="0"
   style="stop-color:#ED7C00"
   id="stop16" />
		<stop
   offset="1"
   style="stop-color:#F89000"
   id="stop18" />
	</linearGradient>
	<path
   d="M 49.361699,52.942418 C 53.936699,52.942418 79.557,51.938614 79.557,51.938614 L 79.557,34.20757 L 121.785,63.758378 L 79.557,93.308486 L 79.557,75.579541 C 79.557,75.579541 61.908,75.579541 53.465,75.579541 C 43.429,75.579541 41.147489,76.52689 21.217699,93.920167 C -5.297041,117.06031 -29.253556,64.829715 -29.253556,64.829715 C -29.253556,64.829715 1.5250853,107.71832 7.769,82.541934 C 13.206272,60.701704 42.676699,52.942418 49.361699,52.942418 z"
   id="path20"
   style="fill:url(#XMLID_6_)"
   sodipodi:nodetypes="ccccccsscsc" />
	<linearGradient
   id="XMLID_7_"
   gradientUnits="userSpaceOnUse"
   x1="46.8535"
   y1="23.5815"
   x2="92.8537"
   y2="120.0819"
   gradientTransform="matrix(-1,0,0,0.6998084,129.554,30.196268)">
		<stop
   offset="0"
   style="stop-color:#ED7C00"
   id="stop23" />
		<stop
   offset="1"
   style="stop-color:#FFA000"
   id="stop25" />
	</linearGradient>
	<path
   d="M 121.785,63.758378 L 79.557,93.308486 L 79.557,92.608678 L 121.285,63.408474 L 121.785,63.758378 z M 7.782,82.245915 C 9.1679945,112.08737 -25.258527,72.687131 -28.015531,66.737104 C -25.264033,73.605437 -17.71936,80.877807 -17.71936,80.877807 C -17.71936,80.877807 7.769,108.48033 7.769,82.541234 C 7.769,82.439762 7.781,82.346688 7.782,82.245915 z M 21.564301,93.589485 C 21.31035,94.10613 21.385,94.127171 21.385,93.973213 C 21.385,79.527768 43.429,74.879732 53.465,74.879732 C 61.907,74.879732 79.557,74.879732 79.557,74.879732 L 79.557,75.579541 C 79.557,75.579541 61.908,75.579541 53.465,75.579541 C 43.488,75.579541 21.817301,79.321792 21.564301,93.589485 z"
   id="path27"
   style="fill:url(#XMLID_7_)"
   sodipodi:nodetypes="ccccccccsccssccsc" />
	<linearGradient
   id="XMLID_8_"
   gradientUnits="userSpaceOnUse"
   x1="8.522"
   y1="28.0591"
   x2="111.5223"
   y2="52.5592"
   gradientTransform="matrix(-1,0,0,0.6998084,129.554,30.196268)">
		<stop
   offset="0"
   style="stop-color:#FABD8C"
   id="stop30" />
		<stop
   offset="1"
   style="stop-color:#F8A039"
   id="stop32" />
	</linearGradient>
	<path
   d="M 73.331,67.352594 C 47.805,63.262214 20.434293,63.876062 20.434293,63.876062 C 30.390789,57.299492 38.172853,52.645341 49.529,51.938614 C 57.083037,51.470229 79.557,51.938614 79.557,51.938614 L 79.557,34.20757 L 121.785,63.758378 L 105.894,74.880432 C 105.894,74.880432 98.857,71.442974 73.331,67.352594 z"
   id="path34"
   style="fill:url(#XMLID_8_)"
   sodipodi:nodetypes="ccsccccc" />
</svg>